# AST/ASF file generated using VICON BodyLanguage
# -----------------------------------------------
:version 1.10
:name VICON
:units
  mass 1.0
  length 0.45
  angle deg
:documentation
   .ast/.asf automatically generated from VICON data using
   VICON BodyBuilder and BodyLanguage model FoxedUp or BRILLIANT.MOD
:root
   order TX TY TZ RX RY RZ
   axis XYZ
   position 0 0 0  
   orientation 0 0 0 
:bonedata
  begin
     id 1 
     name lhipjoint
     direction 0.561001 -0.76473 0.316963 
     length 2.4722 
     axis 0 0 0  XYZ
  end
  begin
     id 2 
     name lfemur
     direction 0.34202 -0.939693 0  
     length 7.59403  
     axis 0 0 20  XYZ
    dof rx ry rz
    limits (-160.0 20.0)
           (-70.0 70.0)
           (-60.0 70.0)
  end
  begin
     id 3 
     name ltibia
     direction 0.34202 -0.939693 0   
     length 7.89655   
     axis 0 0 20   XYZ
    dof rx
    limits (-10.0 170.0)
  end
  begin
     id 4 
     name lfoot
     direction 0.061296 -0.168409 0.98381   
     length 2.73287   
     axis -90 7.62852e-016 20   XYZ
    dof rx rz
    limits (-45.0 90.0)
           (-70.0 20.0)
  end
  begin
     id 5 
     name ltoes
     direction 1.53547e-011 -4.21984e-011 1   
     length 1.37057   
     axis -90 7.62852e-016 20   XYZ
    dof rx
    limits (-90.0 20.0)
  end
  begin
     id 6 
     name rhipjoint
     direction -0.559611 -0.765599 0.317323   
     length 2.46939  
     axis 0 0 0  XYZ 
  end
  begin
     id 7 
     name rfemur
     direction -0.34202 -0.939693 0   
     length 7.53712   
     axis 0 0 -20   XYZ
    dof rx ry rz
    limits (-160.0 20.0)
           (-70.0 70.0)
           (-70.0 60.0)
  end
  begin
     id 8 
     name rtibia
     direction -0.34202 -0.939693 0   
     length 8.12549   
     axis 0 0 -20   XYZ
    dof rx
    limits (-10.0 170.0)
 end
 begin
     id 9 
     name rfoot
     direction -0.066984 -0.184037 0.980634   
     length 2.67541  
     axis -90 -7.62852e-016 -20   XYZ
    dof rx rz
    limits (-45.0 90.0)
           (-20.0 70.0)
  end
  begin
     id 10 
     name rtoes
     direction -1.53549e-011 -4.21786e-011 1   
     length 1.34085   
     axis -90 -7.62852e-016 -20   XYZ
    dof rx
    limits (-90.0 20.0)
  end
  begin
     id 11 
     name lowerback
     direction -0.0522728 0.992594 -0.109658   
     length 2.05633   
     axis 0 0 0   XYZ
    dof rx ry rz
    limits (-20.0 45.0)
           (-30.0 30.0)
           (-30.0 30.0)
  end
  begin
     id 12 
     name upperback
     direction 0.00589338 0.999977 0.00335704   
     length 2.05845   
     axis 0 0 0   XYZ
    dof rx ry rz
    limits (-20.0 45.0)
           (-30.0 30.0)
           (-30.0 30.0)
  end
  begin
     id 13 
     name thorax
     direction 0.0292928 0.998059 0.0549487   
     length 2.09281   
     axis 0 0 0   XYZ
    dof rx ry rz
    limits (-20.0 45.0)
           (-30.0 30.0)
           (-30.0 30.0)
  end
  begin
     id 14 
     name lowerneck
     direction 0.0356368 0.980775 0.191858   
     length 1.84767   
     axis 0 0 0   XYZ
    dof rx ry rz
    limits (-20.0 45.0)
           (-30.0 30.0)
           (-30.0 30.0)
  end
  begin
     id 15 
     name upperneck
     direction -0.0227605 0.98931 -0.14404   
     length 1.89582   
     axis 0 0 0   XYZ
    dof rx ry rz
    limits (-20.0 45.0)
           (-30.0 30.0)
           (-30.0 30.0)
  end
  begin
     id 16
     name head
     direction -0.00932985 0.997511 -0.0698904  
     length 1.90213  
     axis 0 0 0   XYZ
    dof rx ry rz
    limits (-20.0 45.0)
           (-30.0 30.0)
           (-30.0 30.0)
  end
  begin
     id 17 
     name lclavicle
     direction 0.873442 0.479511 0.0846686  
     length 3.41193  
     axis 0 0 0   XYZ
    dof ry rz
    limits (-20.0 10.0)
           (0.0 20.0)
  end
  begin
     id 18 
     name lhumerus
     direction 1 -4.4897e-011 -5.62117e-018   
     length 5.59864   
     axis 180 -30 -90   XYZ
    dof rx ry rz
    limits (-60.0 90.0)
           (-90.0 90.0)
           (-90.0 90.0)
  end
  begin
     id 19
     name lradius
     direction 1 -4.48966e-011 -6.26295e-027   
     length 3.59542   
     axis 180 -30 -90   XYZ
    dof rx
    limits (-10.0 170.0)
  end
  begin
     id 20
     name lwrist
     direction 1 -4.48947e-011 -1.74096e-026   
     length 1.79771   
     axis 1.04567e-014 90 90   XYZ
    dof ry
    limits (-180.0 0.0)
 end
  begin
     id 21 
     name lhand
     direction 1 -4.49085e-011 -3.48469e-026   
     length 0.572014   
     axis 2.22196e-014 90 90   XYZ
    dof rx rz
    limits (-90.0 90.0)
           (-45.0 45.0)
  end
  begin
     id 22 
     name lfingers
     direction 1 -4.48884e-011 -6.96135e-026   
     length 0.461173   
     axis 4.44383e-014 90 90   XYZ
    dof rx
    limits (0.0 90.0)
  end
  begin
     id 23
     name lthumb
     direction 0.707107 -6.34976e-011 0.707107   
     length 0.662154   
     axis -90 45 -5.4397e-014   XYZ
    dof rx rz
    limits (-45.0 45.0)
           (-45.0 45.0)
  end
  begin
     id 24 
     name rclavicle
     direction -0.890242 0.443271 0.104786   
     length 3.46753  
     axis 0 0 0   XYZ 
    dof ry rz
    limits (-10.0 20.0)
           (-20.0 0.0)
  end
  begin
     id 25 
     name rhumerus
     direction -1 -4.48963e-011 -5.41723e-018  
     length 5.8094   
     axis 180 30 90   XYZ
    dof rx ry rz
    limits (-90.0 60.0)
           (-90.0 90.0)
           (-90.0 90.0)
  end
  begin
     id 26 
     name rradius
     direction -1 -4.48958e-011 -6.51059e-027   
     length 3.66953   
     axis 180 30 90   XYZ
    dof rx
    limits (-10.0 170.0)
  end
  begin
     id 27 
     name rwrist
     direction -1 -4.48975e-011 -1.74124e-026   
     length 1.83476   
     axis 1.04567e-014 -90 -90   XYZ
    dof ry
    limits (-180.0 0.0)
  end
  begin
     id 28
     name rhand
     direction -1 -4.49013e-011 -3.48326e-026   
     length 0.57843   
     axis 2.22196e-014 -90 -90   XYZ
    dof rx rz
    limits (-90.0 90.0)
           (-45.0 45.0)
  end
  begin
     id 29
     name rfingers
     direction -1 -4.49023e-011 -6.9669e-026   
     length 0.466345   
     axis 4.44383e-014 -90 -90   XYZ
    dof rx
    limits (0.0 90.0)
  end
  begin
     id 30
     name rthumb
     direction -0.707107 -6.34926e-011 0.707107   
     length 0.669581   
     axis -90 -45 5.4397e-014   XYZ
    dof rx rz
    limits (-45.0 45.0)
           (-45.0 45.0)
  end
:hierarchy
  begin
    root lhipjoint rhipjoint lowerback
    lhipjoint lfemur
    lfemur ltibia
    ltibia lfoot
    lfoot ltoes
    rhipjoint rfemur
    rfemur rtibia
    rtibia rfoot
    rfoot rtoes
    lowerback upperback
    upperback thorax
    thorax lowerneck lclavicle rclavicle
    lowerneck upperneck
    upperneck head
    lclavicle lhumerus
    lhumerus lradius
    lradius lwrist
    lwrist lhand lthumb
    lhand lfingers
    rclavicle rhumerus
    rhumerus rradius
    rradius rwrist
    rwrist rhand rthumb
    rhand rfingers
  end

#!OML:ASF H:\SkateBoarding\Project 1\Capture day 1\Session 1\Skater.ASF
:FULLY-SPECIFIED
:DEGREES
301
root 1.19326 18.3491 3.24519 13.857 12.1166 1.06421
lowerback 15.2518 0.509219 -3.67086
upperback 2.109 0.0993142 0.256465
thorax -6.3152 0.142598 2.33176
lowerneck -15.7065 1.69662 3.80423
upperneck 16.8044 4.20154 -13.7782
head 8.21004 0.908933 -4.78152
rclavicle 1.50766e-014 8.92046e-015
rhumerus -29.4538 -3.54349 -86.4276
rradius 33.0997
rwrist -7.13932
rhand -29.6484 -10.6524
rfingers 7.12502
rthumb -2.97787 -40.6114
lclavicle 1.50766e-014 8.92046e-015
lhumerus -38.1418 -6.61859 90.7385
lradius 39.5964
lwrist 23.7142
lhand -21.5118 15.5788
lfingers 7.12502
lthumb 4.88021 45.5026
rfemur -49.6672 4.97365 8.91546
rtibia 60.6109
rfoot -9.12238 25.0168
rtoes -0.710026
lfemur -7.156 -21.9576 -19.4234
ltibia 17.4111
lfoot -33.0138 0.154734
ltoes -13.5062
302
root 1.18833 18.335 3.29942 14.0701 12.0904 1.09515
lowerback 15.3977 0.578942 -3.61385
upperback 2.18218 0.193749 0.219404
thorax -6.32335 0.186113 2.24084
lowerneck -15.6107 1.95305 4.09634
upperneck 16.4799 4.5714 -14.3758
head 8.14644 1.062 -4.98554
rclavicle 5.28759e-015 2.07194e-014
rhumerus -29.3244 -3.59777 -86.453
rradius 33.1993
rwrist -7.22309
rhand -29.7282 -10.5725
rfingers 7.12502
rthumb -3.05501 -40.5303
lclavicle 5.28759e-015 2.07194e-014
lhumerus -38.1015 -6.77766 90.7516
lradius 39.637
lwrist 23.739
lhand -21.4801 15.5583
lfingers 7.12502
lthumb 4.91075 45.4814
rfemur -50.026 5.07628 8.83156
rtibia 60.8528
rfoot -9.29591 25.0271
rtoes -0.732004
lfemur -7.26579 -21.4459 -19.3704
ltibia 17.5244
lfoot -32.8489 -0.338197
ltoes -13.5413
303
root 1.18272 18.3199 3.35549 14.2675 12.0698 1.12164
lowerback 15.5507 0.653343 -3.55688
upperback 2.25852 0.294026 0.179982
thorax -6.33193 0.232432 2.1459
lowerneck -15.5099 2.17643 4.36854
upperneck 16.1744 4.88679 -14.9049
head 8.08362 1.19517 -5.16971
rclavicle 5.58461e-015 -5.98218e-015
rhumerus -29.2068 -3.65503 -86.4813
rradius 33.3
rwrist -7.29387
rhand -29.8061 -10.4964
rfingers 7.12502
rthumb -3.13024 -40.4531
lclavicle 5.58461e-015 -5.98218e-015
lhumerus -38.0533 -6.95605 90.765
lradius 39.6802
lwrist 23.7832
lhand -21.4284 15.5459
lfingers 7.12502
lthumb 4.96071 45.4679
rfemur -50.3766 5.19287 8.7516
rtibia 61.1103
rfoot -9.49083 25.0319
rtoes -0.764945
lfemur -7.36735 -20.9275 -19.3174
ltibia 17.669
lfoot -32.6895 -0.843419
ltoes -13.5835
304
root 1.17659 18.3036 3.41318 14.4527 12.0511 1.14293
lowerback 15.7108 0.731463 -3.49844
upperback 2.33625 0.399104 0.138484
thorax -6.34274 0.281064 2.04654
lowerneck -15.4158 2.36723 4.61129
upperneck 15.8967 5.15022 -15.3555
head 8.02506 1.30878 -5.32877
rclavicle -5.06218e-014 1.51698e-014
rhumerus -29.0981 -3.71106 -86.5128
rradius 33.3996
rwrist -7.34758
rhand -29.8787 -10.4266
rfingers 7.12502
rthumb -3.20028 -40.3823
lclavicle -5.06218e-014 1.51698e-014
lhumerus -37.9992 -7.14776 90.7792
lradius 39.7285
lwrist 23.8458
lhand -21.3581 15.5322
lfingers 7.12502
lthumb 5.02855 45.4525
rfemur -50.7258 5.32319 8.67449
rtibia 61.3849
rfoot -9.70394 25.0361
rtoes -0.796744
lfemur -7.46823 -20.4001 -19.2633
ltibia 17.8509
lfoot -32.5389 -1.36169
ltoes -13.6287
305
root 1.16953 18.2859 3.47271 14.623 12.0432 1.1602
lowerback 15.8805 0.808554 -3.44566
upperback 2.41713 0.50188 0.100363
thorax -6.35488 0.328745 1.95406
lowerneck -15.3358 2.52692 4.81742
upperneck 15.651 5.36559 -15.7233
head 7.97247 1.40373 -5.45956
rclavicle 1.72321e-014 2.60905e-015
rhumerus -28.9926 -3.75167 -86.5459
rradius 33.4984
rwrist -7.39727
rhand -29.9369 -10.3669
rfingers 7.12502
rthumb -3.25654 -40.3218
lclavicle 1.72321e-014 2.60905e-015
lhumerus -37.9354 -7.33537 90.794
lradius 39.7801
lwrist 23.9169
lhand -21.2804 15.5135
lfingers 7.12502
lthumb 5.10359 45.4321
rfemur -51.0518 5.46528 8.60219
rtibia 61.6326
rfoot -9.92923 25.0118
rtoes -0.85885
lfemur -7.46659 -19.8565 -19.2051
ltibia 17.8688
lfoot -32.308 -1.83896
ltoes -13.6747
306
root 1.16166 18.2668 3.53404 14.7792 12.0478 1.17101
lowerback 16.0596 0.881515 -3.39571
upperback 2.50081 0.598866 0.067222
thorax -6.36836 0.373733 1.86928
lowerneck -15.2752 2.65884 4.98546
upperneck 15.4403 5.53841 -16.0074
head 7.92732 1.4819 -5.56083
rclavicle -4.87395e-014 2.83268e-015
rhumerus -28.885 -3.7721 -86.5818
rradius 33.5903
rwrist -7.43456
rhand -29.9772 -10.324
rfingers 7.12502
rthumb -3.29539 -40.2783
lclavicle -4.87395e-014 2.83268e-015
lhumerus -37.8616 -7.51042 90.8099
lradius 39.8337
lwrist 23.9893
lhand -21.2049 15.495
lfingers 7.12502
lthumb 5.17656 45.4118
rfemur -51.3726 5.61327 8.53733
rtibia 61.9004
rfoot -10.176 24.9903
rtoes -0.942102
lfemur -7.47486 -19.3067 -19.1387
ltibia 17.9445
lfoot -32.0807 -2.34753
ltoes -13.7024
307
root 1.15433 18.2689 3.59951 14.9221 12.0655 1.17677
lowerback 16.2489 0.947803 -3.35322
upperback 2.58649 0.686059 0.0414804
thorax -6.38439 0.414238 1.79826
lowerneck -15.2328 2.76447 5.11194
upperneck 15.2612 5.67226 -16.212
head 7.88807 1.5443 -5.6328
rclavicle 1.24986e-014 -1.98785e-015
rhumerus -28.7713 -3.76389 -86.6184
rradius 33.6691
rwrist -7.46104
rhand -30.0104 -10.2602
rfingers 7.12502
rthumb -3.32752 -40.214
lclavicle 1.24986e-014 -1.98785e-015
lhumerus -37.7724 -7.65898 90.8274
lradius 39.8822
lwrist 24.055
lhand -21.1334 15.487
lfingers 7.12502
lthumb 5.24556 45.4021
rfemur -51.5793 5.7746 8.48965
rtibia 62.0981
rfoot -10.4533 24.9795
rtoes -0.999204
lfemur -7.49176 -18.7554 -19.0658
ltibia 18.0679
lfoot -31.8457 -2.87955
ltoes -13.7094
308
root 1.14457 18.2468 3.66459 15.0501 12.1023 1.17597
lowerback 16.4485 1.00498 -3.31657
upperback 2.67511 0.760686 0.0249788
thorax -6.40202 0.44887 1.74269
lowerneck -15.2123 2.84898 5.20406
upperneck 15.1138 5.77449 -16.3455
head 7.85619 1.59374 -5.67873
rclavicle -6.08778e-015 1.22253e-014
rhumerus -28.6507 -3.7239 -86.6575
rradius 33.7365
rwrist -7.47575
rhand -30.033 -10.1903
rfingers 7.12502
rthumb -3.34933 -40.1438
lclavicle -6.08778e-015 1.22253e-014
lhumerus -37.6694 -7.77849 90.8475
lradius 39.9287
lwrist 24.111
lhand -21.0741 15.4602
lfingers 7.12502
lthumb 5.30282 45.3738
rfemur -51.8851 5.92582 8.44439
rtibia 62.4077
rfoot -10.7382 24.9651
rtoes -1.07745
lfemur -7.54902 -18.2082 -18.9771
ltibia 18.3121
lfoot -31.6269 -3.46713
ltoes -13.6857
309
root 1.13392 18.2226 3.73135 15.1659 12.1561 1.16748
lowerback 16.6586 1.0528 -3.283
upperback 2.76463 0.82283 0.0174009
thorax -6.42351 0.477657 1.70069
lowerneck -15.2132 2.91141 5.26064
upperneck 14.9965 5.84493 -16.4125
head 7.83087 1.62961 -5.69996
rclavicle -1.65737e-014 -2.44008e-014
rhumerus -28.5197 -3.65491 -86.6969
rradius 33.791
rwrist -7.48257
rhand -30.0459 -10.1031
rfingers 7.12502
rthumb -3.36181 -40.0563
lclavicle -1.65737e-014 -2.44008e-014
lhumerus -37.5566 -7.87404 90.8708
lradius 39.9747
lwrist 24.1626
lhand -21.0324 15.4369
lfingers 7.12502
lthumb 5.34308 45.3495
rfemur -52.19 6.07025 8.41276
rtibia 62.741
rfoot -11.0242 24.96
rtoes -1.12077
lfemur -7.65038 -17.6715 -18.8717
ltibia 18.6706
lfoot -31.4108 -4.10578
ltoes -13.6128
